<svg width="18" height="14" viewBox="0 0 18 14" fill="none" xmlns="http://www.w3.org/2000/svg">
<path d="M15.6667 0.333313H2.33335C1.41669 0.333313 0.67502 1.08331 0.67502 1.99998L0.666687 12C0.666687 12.9166 1.41669 13.6666 2.33335 13.6666H15.6667C16.5834 13.6666 17.3334 12.9166 17.3334 12V1.99998C17.3334 1.08331 16.5834 0.333313 15.6667 0.333313ZM15.3334 3.87498L9.44169 7.55831C9.17502 7.72498 8.82502 7.72498 8.55835 7.55831L2.66669 3.87498C2.58313 3.82807 2.50995 3.7647 2.45159 3.68869C2.39324 3.61268 2.35091 3.52563 2.32717 3.43279C2.30343 3.33995 2.29877 3.24326 2.31348 3.14857C2.3282 3.05388 2.36197 2.96316 2.41276 2.8819C2.46354 2.80064 2.53029 2.73053 2.60896 2.67581C2.68763 2.62109 2.77658 2.58291 2.87043 2.56356C2.96429 2.54422 3.06109 2.54412 3.15498 2.56327C3.24888 2.58242 3.33791 2.62042 3.41669 2.67498L9.00002 6.16665L14.5834 2.67498C14.6621 2.62042 14.7512 2.58242 14.8451 2.56327C14.939 2.54412 15.0358 2.54422 15.1296 2.56356C15.2235 2.58291 15.3124 2.62109 15.3911 2.67581C15.4698 2.73053 15.5365 2.80064 15.5873 2.8819C15.6381 2.96316 15.6718 3.05388 15.6866 3.14857C15.7013 3.24326 15.6966 3.33995 15.6729 3.43279C15.6491 3.52563 15.6068 3.61268 15.5484 3.68869C15.4901 3.7647 15.4169 3.82807 15.3334 3.87498Z" fill="#BDBDBD"/>
</svg>
